<?xml version="1.0" encoding="UTF-8"?>
<svg xmlns="http://www.w3.org/2000/svg" xmlns:xlink="http://www.w3.org/1999/xlink" width="32px" height="32px" viewBox="0 0 32 32" version="1.1">
<g id="surface1">
<path style=" stroke:none;fill-rule:nonzero;fill:rgb(93.72549%,83.921569%,13.333333%);fill-opacity:1;" d="M 8.585938 -0.0078125 C 8.613281 -0.0078125 8.640625 -0.0078125 8.667969 -0.0078125 C 9.851562 -0.0195312 9.851562 -0.0195312 10.4375 0.125 C 10.484375 0.136719 10.484375 0.136719 10.53125 0.148438 C 10.957031 0.253906 11.359375 0.398438 11.75 0.59375 C 11.78125 0.609375 11.78125 0.609375 11.816406 0.625 C 12.34375 0.886719 12.828125 1.21875 13.28125 1.59375 C 13.296875 1.609375 13.316406 1.621094 13.335938 1.636719 C 13.816406 2.039062 14.292969 2.464844 14.699219 2.941406 C 14.75 3 14.804688 3.054688 14.859375 3.109375 C 14.953125 3.203125 15.042969 3.300781 15.128906 3.402344 C 15.191406 3.476562 15.257812 3.546875 15.324219 3.617188 C 15.449219 3.757812 15.566406 3.898438 15.683594 4.042969 C 15.746094 4.121094 15.808594 4.195312 15.875 4.273438 C 15.898438 4.300781 15.898438 4.300781 15.925781 4.332031 C 15.964844 4.382812 15.964844 4.382812 16.03125 4.375 C 16.074219 4.328125 16.113281 4.277344 16.152344 4.226562 C 16.265625 4.089844 16.382812 3.953125 16.503906 3.820312 C 16.621094 3.695312 16.738281 3.566406 16.855469 3.433594 C 17.328125 2.890625 17.820312 2.339844 18.375 1.875 C 18.40625 1.847656 18.4375 1.820312 18.46875 1.792969 C 19.613281 0.78125 21.082031 0 22.644531 -0.0078125 C 22.671875 -0.0078125 22.699219 -0.0078125 22.730469 -0.0078125 C 23.90625 -0.015625 23.90625 -0.015625 24.4375 0.09375 C 24.46875 0.101562 24.5 0.105469 24.53125 0.113281 C 25.261719 0.257812 25.957031 0.484375 26.625 0.8125 C 26.648438 0.824219 26.675781 0.835938 26.699219 0.847656 C 27.386719 1.1875 28.023438 1.628906 28.582031 2.148438 C 28.648438 2.210938 28.714844 2.269531 28.78125 2.328125 C 29.019531 2.535156 29.238281 2.757812 29.4375 3 C 29.457031 3.023438 29.457031 3.023438 29.480469 3.050781 C 31.15625 5.050781 32.015625 7.585938 32.011719 10.183594 C 32.011719 10.296875 32.011719 10.414062 32.011719 10.53125 C 32.011719 11.222656 31.957031 11.90625 31.820312 12.585938 C 31.8125 12.625 31.804688 12.667969 31.796875 12.707031 C 31.71875 13.082031 31.621094 13.449219 31.5 13.8125 C 31.492188 13.839844 31.480469 13.871094 31.472656 13.898438 C 31.074219 15.085938 30.449219 16.214844 29.65625 17.1875 C 29.632812 17.214844 29.613281 17.242188 29.589844 17.273438 C 29.300781 17.628906 29 17.972656 28.683594 18.308594 C 28.597656 18.402344 28.511719 18.496094 28.429688 18.59375 C 28.359375 18.671875 28.289062 18.75 28.21875 18.828125 C 28.128906 18.925781 28.039062 19.023438 27.953125 19.125 C 27.839844 19.253906 27.722656 19.382812 27.605469 19.511719 C 27.542969 19.578125 27.484375 19.648438 27.421875 19.71875 C 27.335938 19.820312 27.246094 19.917969 27.15625 20.015625 C 27.046875 20.132812 26.941406 20.253906 26.835938 20.375 C 26.703125 20.527344 26.5625 20.679688 26.425781 20.832031 C 26.320312 20.949219 26.214844 21.066406 26.109375 21.1875 C 25.996094 21.316406 25.878906 21.445312 25.761719 21.574219 C 25.699219 21.640625 25.640625 21.710938 25.578125 21.78125 C 25.464844 21.910156 25.347656 22.039062 25.230469 22.167969 C 25.167969 22.234375 25.109375 22.304688 25.046875 22.375 C 24.933594 22.503906 24.816406 22.632812 24.699219 22.761719 C 24.636719 22.828125 24.578125 22.898438 24.515625 22.96875 C 24.402344 23.097656 24.285156 23.226562 24.167969 23.355469 C 24.105469 23.421875 24.046875 23.492188 23.984375 23.5625 C 23.871094 23.691406 23.753906 23.820312 23.636719 23.949219 C 23.574219 24.015625 23.515625 24.085938 23.453125 24.15625 C 23.339844 24.285156 23.222656 24.414062 23.105469 24.542969 C 23.042969 24.609375 22.984375 24.679688 22.921875 24.75 C 22.808594 24.878906 22.691406 25.007812 22.574219 25.136719 C 22.511719 25.203125 22.453125 25.273438 22.390625 25.34375 C 22.277344 25.472656 22.160156 25.601562 22.042969 25.730469 C 21.980469 25.796875 21.921875 25.867188 21.859375 25.9375 C 21.746094 26.066406 21.628906 26.195312 21.511719 26.324219 C 21.449219 26.390625 21.390625 26.460938 21.328125 26.53125 C 21.214844 26.660156 21.097656 26.789062 20.980469 26.917969 C 20.917969 26.984375 20.859375 27.054688 20.796875 27.125 C 20.683594 27.253906 20.566406 27.382812 20.449219 27.511719 C 20.386719 27.578125 20.328125 27.648438 20.265625 27.71875 C 20.175781 27.824219 20.078125 27.925781 19.984375 28.03125 C 19.871094 28.15625 19.757812 28.28125 19.648438 28.40625 C 19.515625 28.558594 19.375 28.710938 19.238281 28.863281 C 19.132812 28.980469 19.027344 29.097656 18.921875 29.21875 C 18.808594 29.347656 18.691406 29.476562 18.574219 29.605469 C 18.511719 29.671875 18.453125 29.742188 18.390625 29.8125 C 18.277344 29.941406 18.160156 30.070312 18.042969 30.199219 C 17.980469 30.265625 17.921875 30.335938 17.859375 30.40625 C 17.746094 30.535156 17.628906 30.664062 17.511719 30.792969 C 17.449219 30.859375 17.390625 30.929688 17.328125 31 C 17.222656 31.121094 17.113281 31.242188 17 31.363281 C 16.929688 31.441406 16.859375 31.519531 16.792969 31.597656 C 16.695312 31.714844 16.59375 31.792969 16.46875 31.875 C 16.449219 31.886719 16.429688 31.902344 16.410156 31.914062 C 16.222656 32.027344 16.027344 32.027344 15.8125 32 C 15.429688 31.886719 15.160156 31.539062 14.90625 31.25 C 14.859375 31.195312 14.808594 31.144531 14.761719 31.089844 C 14.679688 31 14.597656 30.90625 14.515625 30.816406 C 14.402344 30.683594 14.285156 30.554688 14.167969 30.425781 C 14.089844 30.339844 14.011719 30.25 13.933594 30.160156 C 13.835938 30.050781 13.738281 29.941406 13.636719 29.832031 C 13.574219 29.765625 13.515625 29.695312 13.453125 29.628906 C 13.363281 29.519531 13.265625 29.417969 13.171875 29.3125 C 13.058594 29.1875 12.945312 29.0625 12.835938 28.9375 C 12.726562 28.8125 12.613281 28.6875 12.5 28.5625 C 12.230469 28.265625 12.230469 28.265625 12.109375 28.128906 C 11.996094 27.996094 11.878906 27.867188 11.761719 27.738281 C 11.683594 27.652344 11.605469 27.5625 11.527344 27.472656 C 11.429688 27.363281 11.332031 27.253906 11.230469 27.144531 C 11.167969 27.078125 11.109375 27.007812 11.046875 26.941406 C 10.957031 26.832031 10.859375 26.730469 10.765625 26.625 C 10.652344 26.5 10.539062 26.375 10.429688 26.25 C 10.320312 26.125 10.207031 26 10.09375 25.875 C 9.824219 25.578125 9.824219 25.578125 9.703125 25.441406 C 9.589844 25.308594 9.472656 25.179688 9.355469 25.050781 C 9.277344 24.964844 9.199219 24.875 9.121094 24.785156 C 9.050781 24.703125 8.976562 24.625 8.90625 24.546875 C 8.800781 24.429688 8.691406 24.3125 8.589844 24.191406 C 8.519531 24.109375 8.445312 24.03125 8.375 23.953125 C 8.269531 23.835938 8.160156 23.71875 8.058594 23.597656 C 7.988281 23.515625 7.914062 23.4375 7.84375 23.359375 C 7.738281 23.242188 7.628906 23.125 7.527344 23.003906 C 7.457031 22.921875 7.382812 22.84375 7.3125 22.765625 C 7.203125 22.648438 7.097656 22.527344 6.992188 22.40625 C 6.882812 22.28125 6.769531 22.15625 6.65625 22.03125 C 6.386719 21.734375 6.386719 21.734375 6.265625 21.597656 C 6.152344 21.464844 6.035156 21.335938 5.917969 21.207031 C 5.839844 21.121094 5.761719 21.03125 5.683594 20.941406 C 5.613281 20.859375 5.539062 20.78125 5.46875 20.703125 C 5.363281 20.585938 5.253906 20.46875 5.152344 20.347656 C 5.082031 20.265625 5.007812 20.1875 4.9375 20.109375 C 4.832031 19.992188 4.722656 19.875 4.621094 19.753906 C 4.550781 19.671875 4.476562 19.59375 4.40625 19.515625 C 4.300781 19.398438 4.191406 19.28125 4.089844 19.160156 C 4.019531 19.078125 3.945312 19 3.875 18.921875 C 3.769531 18.804688 3.660156 18.6875 3.558594 18.566406 C 3.488281 18.484375 3.414062 18.40625 3.34375 18.328125 C 3.234375 18.210938 3.128906 18.089844 3.023438 17.96875 C 2.984375 17.925781 2.945312 17.878906 2.90625 17.835938 C 2.71875 17.636719 2.550781 17.421875 2.382812 17.207031 C 2.332031 17.140625 2.273438 17.074219 2.21875 17.007812 C 1.140625 15.65625 0.429688 14.015625 0.132812 12.316406 C 0.125 12.28125 0.117188 12.246094 0.113281 12.210938 C 0.015625 11.625 -0.0117188 11.039062 -0.0117188 10.441406 C -0.0117188 10.328125 -0.0117188 10.210938 -0.0117188 10.09375 C -0.0195312 7.492188 0.90625 4.851562 2.65625 2.90625 C 2.671875 2.886719 2.6875 2.871094 2.703125 2.851562 C 2.964844 2.5625 3.234375 2.28125 3.53125 2.03125 C 3.546875 2.015625 3.566406 2.003906 3.582031 1.988281 C 3.902344 1.714844 4.238281 1.472656 4.59375 1.25 C 4.613281 1.238281 4.636719 1.222656 4.660156 1.207031 C 5.816406 0.484375 7.210938 0.00390625 8.585938 -0.0078125 Z M 8.585938 -0.0078125 "/>
<path style=" stroke:none;fill-rule:nonzero;fill:rgb(15.294118%,14.509804%,13.72549%);fill-opacity:1;" d="M 9.4375 9.554688 C 9.472656 9.554688 9.511719 9.554688 9.550781 9.554688 C 9.609375 9.554688 9.609375 9.554688 9.671875 9.554688 C 9.714844 9.554688 9.757812 9.554688 9.796875 9.554688 C 9.886719 9.554688 9.976562 9.554688 10.066406 9.554688 C 10.175781 9.554688 10.289062 9.554688 10.402344 9.554688 C 10.492188 9.554688 10.578125 9.554688 10.664062 9.554688 C 10.726562 9.554688 10.789062 9.554688 10.847656 9.554688 C 11.390625 9.554688 11.953125 9.648438 12.375 10.023438 C 12.632812 10.296875 12.746094 10.636719 12.8125 11 C 12.816406 11.027344 12.824219 11.054688 12.828125 11.085938 C 12.910156 11.667969 12.871094 12.375 12.53125 12.875 C 12.320312 13.136719 12.050781 13.335938 11.71875 13.40625 C 11.75 13.414062 11.785156 13.425781 11.816406 13.433594 C 12.238281 13.554688 12.554688 13.710938 12.777344 14.105469 C 13.097656 14.71875 13.132812 15.496094 12.9375 16.15625 C 12.929688 16.195312 12.929688 16.195312 12.917969 16.238281 C 12.808594 16.671875 12.550781 17.054688 12.183594 17.304688 C 11.585938 17.660156 10.941406 17.671875 10.269531 17.671875 C 10.164062 17.667969 10.054688 17.671875 9.949219 17.671875 C 9.84375 17.671875 9.742188 17.671875 9.636719 17.671875 C 9.597656 17.671875 9.558594 17.671875 9.519531 17.671875 C 9.300781 17.671875 9.15625 17.648438 8.96875 17.53125 C 8.808594 17.367188 8.804688 17.179688 8.804688 16.960938 C 8.804688 16.929688 8.804688 16.902344 8.804688 16.871094 C 8.804688 16.773438 8.804688 16.675781 8.804688 16.578125 C 8.804688 16.507812 8.804688 16.4375 8.804688 16.367188 C 8.800781 16.175781 8.800781 15.984375 8.800781 15.792969 C 8.800781 15.632812 8.800781 15.472656 8.800781 15.3125 C 8.800781 14.957031 8.800781 14.601562 8.800781 14.246094 C 8.800781 14.226562 8.800781 14.203125 8.800781 14.183594 C 8.800781 14.152344 8.800781 14.152344 8.800781 14.117188 C 8.800781 13.773438 8.800781 13.425781 8.800781 13.082031 C 8.796875 12.726562 8.796875 12.371094 8.796875 12.015625 C 8.796875 11.816406 8.796875 11.617188 8.796875 11.417969 C 8.796875 11.230469 8.796875 11.042969 8.796875 10.855469 C 8.796875 10.789062 8.796875 10.71875 8.796875 10.648438 C 8.796875 10.554688 8.796875 10.460938 8.796875 10.367188 C 8.796875 10.339844 8.796875 10.3125 8.796875 10.285156 C 8.796875 10.082031 8.84375 9.886719 8.984375 9.730469 C 9.128906 9.605469 9.242188 9.554688 9.4375 9.554688 Z M 9.4375 9.554688 "/>
<path style=" stroke:none;fill-rule:nonzero;fill:rgb(14.901961%,14.509804%,13.72549%);fill-opacity:1;" d="M 23.148438 9.84375 C 23.296875 9.96875 23.394531 10.085938 23.414062 10.28125 C 23.425781 10.507812 23.417969 10.671875 23.277344 10.851562 C 23.148438 10.976562 23.019531 11.039062 22.839844 11.039062 C 22.671875 11.039062 22.527344 10.988281 22.371094 10.9375 C 22.117188 10.863281 21.878906 10.824219 21.617188 10.824219 C 21.585938 10.824219 21.558594 10.824219 21.527344 10.824219 C 21.25 10.828125 20.980469 10.929688 20.78125 11.125 C 20.550781 11.425781 20.445312 11.746094 20.371094 12.109375 C 20.363281 12.144531 20.363281 12.144531 20.355469 12.179688 C 20.257812 12.675781 20.238281 13.171875 20.242188 13.671875 C 20.242188 13.703125 20.242188 13.730469 20.242188 13.761719 C 20.226562 15.082031 20.226562 15.082031 20.804688 16.222656 C 20.90625 16.304688 21 16.363281 21.125 16.40625 C 21.144531 16.414062 21.164062 16.421875 21.1875 16.425781 C 21.472656 16.507812 21.804688 16.484375 22.09375 16.4375 C 22.105469 15.675781 22.113281 14.910156 22.125 14.125 C 21.929688 14.125 21.734375 14.125 21.53125 14.125 C 21.339844 14.027344 21.226562 13.960938 21.15625 13.75 C 21.152344 13.675781 21.148438 13.597656 21.148438 13.523438 C 21.144531 13.460938 21.144531 13.460938 21.144531 13.398438 C 21.164062 13.226562 21.234375 13.132812 21.359375 13.023438 C 21.46875 12.945312 21.554688 12.933594 21.683594 12.933594 C 21.714844 12.933594 21.742188 12.933594 21.773438 12.929688 C 21.808594 12.929688 21.839844 12.929688 21.875 12.929688 C 21.910156 12.929688 21.945312 12.929688 21.980469 12.929688 C 22.050781 12.929688 22.125 12.929688 22.195312 12.929688 C 22.304688 12.929688 22.417969 12.929688 22.527344 12.929688 C 22.597656 12.925781 22.667969 12.925781 22.738281 12.925781 C 22.769531 12.925781 22.804688 12.925781 22.835938 12.925781 C 23.03125 12.925781 23.179688 12.941406 23.332031 13.078125 C 23.425781 13.199219 23.472656 13.285156 23.472656 13.4375 C 23.472656 13.476562 23.472656 13.476562 23.472656 13.515625 C 23.472656 13.542969 23.472656 13.570312 23.472656 13.597656 C 23.472656 13.628906 23.472656 13.65625 23.472656 13.6875 C 23.472656 13.785156 23.472656 13.882812 23.472656 13.980469 C 23.472656 14.046875 23.472656 14.117188 23.472656 14.183594 C 23.472656 14.328125 23.472656 14.46875 23.472656 14.609375 C 23.472656 14.792969 23.476562 14.972656 23.476562 15.15625 C 23.476562 15.296875 23.476562 15.4375 23.476562 15.578125 C 23.476562 15.644531 23.476562 15.710938 23.476562 15.777344 C 23.476562 15.871094 23.476562 15.964844 23.476562 16.058594 C 23.476562 16.085938 23.476562 16.113281 23.476562 16.144531 C 23.476562 16.574219 23.359375 16.988281 23.054688 17.304688 C 22.644531 17.644531 22.121094 17.722656 21.609375 17.722656 C 21.546875 17.722656 21.484375 17.726562 21.421875 17.726562 C 20.769531 17.726562 20.152344 17.597656 19.664062 17.136719 C 18.957031 16.410156 18.839844 15.28125 18.835938 14.3125 C 18.835938 14.292969 18.835938 14.269531 18.835938 14.25 C 18.835938 14.140625 18.835938 14.03125 18.835938 13.921875 C 18.835938 13.832031 18.835938 13.742188 18.835938 13.65625 C 18.832031 13.136719 18.839844 12.632812 18.9375 12.125 C 18.945312 12.085938 18.953125 12.050781 18.957031 12.011719 C 18.976562 11.914062 19 11.824219 19.023438 11.726562 C 19.03125 11.695312 19.039062 11.664062 19.046875 11.628906 C 19.191406 11.054688 19.457031 10.550781 19.875 10.125 C 19.894531 10.105469 19.914062 10.085938 19.933594 10.066406 C 20.722656 9.320312 22.261719 9.207031 23.148438 9.84375 Z M 23.148438 9.84375 "/>
<path style=" stroke:none;fill-rule:nonzero;fill:rgb(14.901961%,14.509804%,13.72549%);fill-opacity:1;" d="M 14.578125 9.582031 C 14.765625 9.695312 14.863281 9.859375 14.9375 10.0625 C 14.957031 10.140625 14.972656 10.21875 14.988281 10.296875 C 14.992188 10.320312 14.996094 10.34375 15 10.367188 C 15.007812 10.414062 15.019531 10.460938 15.027344 10.507812 C 15.050781 10.636719 15.074219 10.761719 15.097656 10.886719 C 15.105469 10.914062 15.109375 10.9375 15.113281 10.964844 C 15.15625 11.195312 15.203125 11.421875 15.25 11.648438 C 15.335938 12.054688 15.417969 12.460938 15.492188 12.871094 C 15.535156 13.074219 15.574219 13.28125 15.613281 13.488281 C 15.632812 13.585938 15.652344 13.683594 15.671875 13.777344 C 15.710938 13.988281 15.753906 14.199219 15.796875 14.410156 C 15.894531 14.894531 15.953125 15.378906 16 15.875 C 16.003906 15.839844 16.007812 15.804688 16.011719 15.769531 C 16.113281 14.960938 16.238281 14.160156 16.390625 13.359375 C 16.453125 13.019531 16.507812 12.679688 16.566406 12.339844 C 16.585938 12.21875 16.609375 12.09375 16.628906 11.972656 C 16.632812 11.941406 16.636719 11.914062 16.644531 11.882812 C 16.71875 11.441406 16.792969 11 16.875 10.5625 C 16.882812 10.515625 16.882812 10.515625 16.890625 10.46875 C 16.953125 10.136719 17.015625 9.804688 17.300781 9.589844 C 17.480469 9.492188 17.691406 9.5 17.886719 9.550781 C 18.054688 9.621094 18.160156 9.746094 18.25 9.90625 C 18.375 10.230469 18.3125 10.558594 18.230469 10.886719 C 18.214844 10.960938 18.195312 11.035156 18.179688 11.109375 C 18.167969 11.148438 18.160156 11.183594 18.152344 11.226562 C 18.105469 11.425781 18.066406 11.632812 18.03125 11.835938 C 17.96875 12.148438 17.90625 12.457031 17.839844 12.769531 C 17.789062 12.992188 17.746094 13.214844 17.703125 13.4375 C 17.65625 13.691406 17.605469 13.941406 17.546875 14.195312 C 17.484375 14.476562 17.429688 14.761719 17.375 15.046875 C 17.296875 15.457031 17.214844 15.871094 17.125 16.28125 C 17.113281 16.328125 17.113281 16.328125 17.105469 16.375 C 17.085938 16.46875 17.066406 16.558594 17.046875 16.652344 C 17.039062 16.679688 17.035156 16.707031 17.027344 16.734375 C 16.949219 17.078125 16.835938 17.421875 16.527344 17.621094 C 16.257812 17.773438 15.949219 17.800781 15.644531 17.722656 C 15.398438 17.628906 15.21875 17.5 15.085938 17.265625 C 14.996094 17.0625 14.957031 16.839844 14.90625 16.625 C 14.890625 16.5625 14.875 16.5 14.863281 16.4375 C 14.734375 15.894531 14.617188 15.351562 14.503906 14.808594 C 14.480469 14.703125 14.460938 14.601562 14.4375 14.496094 C 14.433594 14.46875 14.425781 14.445312 14.421875 14.417969 C 14.355469 14.105469 14.289062 13.796875 14.210938 13.484375 C 14.160156 13.265625 14.113281 13.046875 14.070312 12.824219 C 14.003906 12.5 13.933594 12.179688 13.859375 11.859375 C 13.8125 11.65625 13.765625 11.453125 13.71875 11.25 C 13.710938 11.210938 13.703125 11.175781 13.691406 11.132812 C 13.667969 11.03125 13.648438 10.933594 13.625 10.828125 C 13.617188 10.800781 13.613281 10.773438 13.605469 10.742188 C 13.523438 10.367188 13.535156 10.050781 13.742188 9.722656 C 13.972656 9.5 14.28125 9.449219 14.578125 9.582031 Z M 14.578125 9.582031 "/>
<path style=" stroke:none;fill-rule:nonzero;fill:rgb(93.333333%,83.529412%,13.333333%);fill-opacity:1;" d="M 10.21875 14 C 11.070312 14 11.070312 14 11.328125 14.199219 C 11.597656 14.476562 11.605469 14.859375 11.605469 15.222656 C 11.605469 15.277344 11.605469 15.277344 11.605469 15.335938 C 11.601562 15.699219 11.5625 16.011719 11.34375 16.3125 C 11.011719 16.625 10.691406 16.53125 10.21875 16.53125 C 10.21875 15.695312 10.21875 14.859375 10.21875 14 Z M 10.21875 14 "/>
<path style=" stroke:none;fill-rule:nonzero;fill:rgb(93.333333%,83.529412%,13.333333%);fill-opacity:1;" d="M 10.21875 10.6875 C 11 10.6875 11 10.6875 11.3125 10.84375 C 11.535156 11.097656 11.511719 11.429688 11.507812 11.746094 C 11.511719 11.785156 11.511719 11.828125 11.511719 11.871094 C 11.511719 12.179688 11.488281 12.476562 11.28125 12.71875 C 10.933594 12.980469 10.707031 12.9375 10.21875 12.9375 C 10.21875 12.195312 10.21875 11.453125 10.21875 10.6875 Z M 10.21875 10.6875 "/>
<path style=" stroke:none;fill-rule:nonzero;fill:rgb(95.294118%,87.843137%,32.156863%);fill-opacity:1;" d="M 18.4375 1.8125 C 18.457031 1.824219 18.480469 1.832031 18.5 1.84375 C 18.085938 2.257812 17.675781 2.667969 17.25 3.09375 C 17.230469 3.082031 17.207031 3.074219 17.1875 3.0625 C 17.972656 2.210938 17.972656 2.210938 18.332031 1.914062 C 18.378906 1.871094 18.378906 1.871094 18.4375 1.8125 Z M 18.4375 1.8125 "/>
<path style=" stroke:none;fill-rule:nonzero;fill:rgb(95.686275%,88.235294%,33.333333%);fill-opacity:1;" d="M 3.5625 2 C 3.582031 2.011719 3.605469 2.019531 3.625 2.03125 C 3.335938 2.320312 3.046875 2.609375 2.75 2.90625 C 2.730469 2.894531 2.707031 2.886719 2.6875 2.875 C 2.941406 2.59375 3.195312 2.320312 3.480469 2.074219 C 3.507812 2.050781 3.535156 2.027344 3.5625 2 Z M 3.5625 2 "/>
</g>
</svg>
